<?xml version="1.0" encoding="UTF-8" standalone="no"?>
<svg xmlns="http://www.w3.org/2000/svg" version="1.1" viewBox="0 0 256 256" width="256" height="256">
<path d="m128 22.158a105.84 105.84 0 0 0 -105.84 105.84 105.84 105.84 0 0 0 105.84 105.84 105.84 105.84 0 0 0 105.84 -105.84 105.84 105.84 0 0 0 -105.84 -105.84zm0 32.76c5.16 0.117 9.55 1.875 13.18 5.273 3.34 3.575 5.07 7.94 5.19 13.096-0.12 5.156-1.85 9.404-5.19 12.744-3.63 3.75-8.02 5.625-13.18 5.625s-9.4-1.875-12.74-5.625c-3.75-3.34-5.63-7.588-5.63-12.744s1.88-9.521 5.63-13.096c3.34-3.398 7.58-5.156 12.74-5.273zm-16.35 53.792h32.79v92.37h-32.79v-92.37z" fill-rule="evenodd" fill="#4682b4"/>
<path d="m 120.84068,89.639873 c -1.19322,-0.499046 -3.84643,-2.659286 -5.89601,-4.800531 -3.2071,-3.350519 -3.79165,-4.793592 -4.19379,-10.353017 -0.38101,-5.267454 -0.0335,-7.161747 1.8829,-10.262472 6.54509,-10.590182 22.27542,-11.471902 29.58925,-1.658544 6.10037,8.185205 3.73597,20.732652 -4.89892,25.997677 -3.64258,2.221023 -12.38255,2.792018 -16.48343,1.076887 z" style="fill:#ffffff;stroke-width:1.08474576"/>
<path d="m 111.62034,154.68475 v -45.55933 h 16.27119 16.27118 v 45.55933 45.55932 h -16.27118 -16.27119 z" style="fill:#ffffff;stroke-width:1.08474576"/>
</svg>
